<svg xmlns="http://www.w3.org/2000/svg" viewBox="0 0 455 144" width="455" height="144">
	<style>
		tspan { white-space:pre }
		.shp0 { fill: #d50000 } 
		.shp1 { fill: #01c753 } 
		.shp2 { fill: #0091ea } 
		.shp3 { fill: #333333 } 
	</style>
	<g>
		<path class="shp0" d="M0 121L152 121L152 129L0 129L0 121Z" />
		<path class="shp1" d="M151 121L303 121L303 129L151 129L151 121Z" />
		<path class="shp2" d="M303 121L455 121L455 129L303 129L303 121Z" />
	</g>
	<path id="aparak " fill-rule="evenodd" class="shp3" d="M70.44 113L49.05 113C48.08 111.1 47.37 108.73 46.93 105.9C41.8 111.61 35.14 114.46 26.93 114.46C19.17 114.46 12.72 112.22 7.6 107.73C2.52 103.23 -0.02 97.57 -0.02 90.73C-0.02 82.34 3.08 75.89 9.28 71.4C15.53 66.91 24.54 64.64 36.31 64.59L46.05 64.59L46.05 60.05C46.05 56.38 45.1 53.45 43.19 51.26C41.34 49.06 38.38 47.96 34.33 47.96C30.77 47.96 27.96 48.82 25.91 50.52C23.91 52.23 22.91 54.58 22.91 57.56L1.74 57.56C1.74 52.97 3.15 48.72 5.99 44.81C8.82 40.91 12.82 37.85 18 35.66C23.17 33.41 28.98 32.29 35.43 32.29C45.2 32.29 52.93 34.75 58.65 39.68C64.41 44.57 67.29 51.45 67.29 60.34L67.29 94.69C67.34 102.21 68.39 107.9 70.44 111.75L70.44 113ZM31.55 98.28C34.67 98.28 37.55 97.59 40.19 96.23C42.83 94.81 44.78 92.93 46.05 90.59L46.05 76.96L38.14 76.96C27.54 76.96 21.9 80.63 21.22 87.95L21.15 89.2C21.15 91.83 22.08 94.01 23.93 95.71C25.79 97.42 28.33 98.28 31.55 98.28ZM154.89 73.01L154.89 74.11C154.89 86.32 152.1 96.11 146.54 103.48C141.02 110.8 133.55 114.46 124.13 114.46C116.12 114.46 109.65 111.68 104.72 106.12L104.72 143.47L83.55 143.47L83.55 33.75L103.18 33.75L103.91 41.52C109.04 35.36 115.73 32.29 123.98 32.29C133.75 32.29 141.34 35.9 146.76 43.13C152.18 50.35 154.89 60.31 154.89 73.01ZM133.72 72.57C133.72 65.2 132.4 59.51 129.77 55.5C127.18 51.5 123.39 49.5 118.41 49.5C111.77 49.5 107.21 52.04 104.72 57.12L104.72 89.56C107.3 94.79 111.92 97.4 118.56 97.4C128.67 97.4 133.72 89.12 133.72 72.57ZM235.31 113L213.92 113C212.94 111.1 212.24 108.73 211.8 105.9C206.67 111.61 200 114.46 191.8 114.46C184.04 114.46 177.59 112.22 172.47 107.73C167.39 103.23 164.85 97.57 164.85 90.73C164.85 82.34 167.95 75.89 174.15 71.4C180.4 66.91 189.41 64.64 201.18 64.59L210.92 64.59L210.92 60.05C210.92 56.38 209.97 53.45 208.06 51.26C206.21 49.06 203.25 47.96 199.2 47.96C195.63 47.96 192.83 48.82 190.78 50.52C188.77 52.23 187.77 54.58 187.77 57.56L166.61 57.56C166.61 52.97 168.02 48.72 170.85 44.81C173.69 40.91 177.69 37.85 182.87 35.66C188.04 33.41 193.85 32.29 200.3 32.29C210.06 32.29 217.8 34.75 223.52 39.68C229.28 44.57 232.16 51.45 232.16 60.34L232.16 94.69C232.21 102.21 233.26 107.9 235.31 111.75L235.31 113ZM196.42 98.28C199.54 98.28 202.42 97.59 205.06 96.23C207.7 94.81 209.65 92.93 210.92 90.59L210.92 76.96L203.01 76.96C192.41 76.96 186.77 80.63 186.09 87.95L186.02 89.2C186.02 91.83 186.94 94.01 188.8 95.71C190.65 97.42 193.19 98.28 196.42 98.28ZM293.24 33.24L292.95 53.6C290.07 53.21 287.53 53.01 285.33 53.01C277.32 53.01 272.08 55.72 269.58 61.14L269.58 113L248.42 113L248.42 33.75L268.41 33.75L269 43.2C273.25 35.92 279.13 32.29 286.65 32.29C288.99 32.29 291.19 32.6 293.24 33.24ZM368.24 113L346.86 113C345.88 111.1 345.17 108.73 344.73 105.9C339.6 111.61 332.94 114.46 324.74 114.46C316.97 114.46 310.53 112.22 305.4 107.73C300.32 103.23 297.78 97.57 297.78 90.73C297.78 82.34 300.88 75.89 307.08 71.4C313.33 66.91 322.34 64.64 334.11 64.59L343.85 64.59L343.85 60.05C343.85 56.38 342.9 53.45 341 51.26C339.14 49.06 336.19 47.96 332.13 47.96C328.57 47.96 325.76 48.82 323.71 50.52C321.71 52.23 320.71 54.58 320.71 57.56L299.54 57.56C299.54 52.97 300.96 48.72 303.79 44.81C306.62 40.91 310.63 37.85 315.8 35.66C320.98 33.41 326.79 32.29 333.23 32.29C343 32.29 350.74 34.75 356.45 39.68C362.21 44.57 365.09 51.45 365.09 60.34L365.09 94.69C365.14 102.21 366.19 107.9 368.24 111.75L368.24 113ZM329.35 98.28C332.48 98.28 335.36 97.59 337.99 96.23C340.63 94.81 342.58 92.93 343.85 90.59L343.85 76.96L335.94 76.96C325.35 76.96 319.71 80.63 319.02 87.95L318.95 89.2C318.95 91.83 319.88 94.01 321.73 95.71C323.59 97.42 326.13 98.28 329.35 98.28ZM430.5 113L410.14 81.21L402.52 88.83L402.52 113L381.35 113L381.35 0.5L402.52 0.5L402.52 62.83L406.62 57.56L426.91 33.75L452.32 33.75L423.69 66.78L454.81 113L430.5 113Z" />
</svg>